<mxfile host="65bd71144e">
    <diagram id="d28XbngHZIcDVIqzPzrq" name="Page-1">
        <mxGraphModel dx="1053" dy="-383" grid="1" gridSize="10" guides="1" tooltips="1" connect="1" arrows="1" fold="1" page="1" pageScale="1" pageWidth="827" pageHeight="1169" math="0" shadow="0">
            <root>
                <mxCell id="0"/>
                <mxCell id="1" parent="0"/>
                <mxCell id="2" value="" style="edgeStyle=orthogonalEdgeStyle;rounded=0;html=1;startArrow=none;startFill=0;endArrow=none;endFill=0;" edge="1" parent="1" source="51" target="52">
                    <mxGeometry relative="1" as="geometry"/>
                </mxCell>
                <mxCell id="3" value="" style="edgeStyle=orthogonalEdgeStyle;rounded=0;html=1;startArrow=none;startFill=0;endArrow=none;endFill=0;" edge="1" parent="1" source="53" target="54">
                    <mxGeometry relative="1" as="geometry"/>
                </mxCell>
                <mxCell id="4" value="" style="edgeStyle=none;html=1;startArrow=none;startFill=0;endArrow=none;endFill=0;rounded=0;entryX=0;entryY=0.5;entryDx=0;entryDy=0;" edge="1" parent="1" source="53" target="18">
                    <mxGeometry relative="1" as="geometry">
                        <mxPoint x="890.0700000000011" y="1655.15" as="sourcePoint"/>
                        <mxPoint x="267.57" y="1645.15" as="targetPoint"/>
                    </mxGeometry>
                </mxCell>
                <mxCell id="5" style="edgeStyle=orthogonalEdgeStyle;html=1;exitX=1;exitY=0.25;exitDx=0;exitDy=0;startArrow=none;startFill=0;endArrow=oval;endFill=1;entryX=0.001;entryY=0.5;entryDx=0;entryDy=0;entryPerimeter=0;rounded=0;" edge="1" parent="1" target="32">
                    <mxGeometry relative="1" as="geometry">
                        <mxPoint x="274.57" y="1818.4" as="targetPoint"/>
                        <mxPoint x="224.57000000000016" y="1818.4" as="sourcePoint"/>
                    </mxGeometry>
                </mxCell>
                <mxCell id="6" style="edgeStyle=none;html=1;entryX=-0.009;entryY=0.498;entryDx=0;entryDy=0;entryPerimeter=0;strokeWidth=1;endArrow=oval;endFill=0;" edge="1" parent="1" source="14" target="57">
                    <mxGeometry relative="1" as="geometry"/>
                </mxCell>
                <mxCell id="7" style="edgeStyle=none;html=1;entryX=0.008;entryY=0.516;entryDx=0;entryDy=0;entryPerimeter=0;strokeWidth=1;endArrow=oval;endFill=0;" edge="1" parent="1" source="14" target="55">
                    <mxGeometry relative="1" as="geometry"/>
                </mxCell>
                <mxCell id="8" style="edgeStyle=none;html=1;entryX=-0.013;entryY=0.521;entryDx=0;entryDy=0;entryPerimeter=0;strokeWidth=1;endArrow=oval;endFill=0;" edge="1" parent="1" source="14" target="56">
                    <mxGeometry relative="1" as="geometry"/>
                </mxCell>
                <mxCell id="9" style="edgeStyle=none;html=1;entryX=0;entryY=0.474;entryDx=0;entryDy=0;entryPerimeter=0;strokeWidth=1;endArrow=oval;endFill=0;" edge="1" parent="1" source="14" target="60">
                    <mxGeometry relative="1" as="geometry"/>
                </mxCell>
                <mxCell id="10" style="edgeStyle=none;html=1;entryX=-0.001;entryY=0.514;entryDx=0;entryDy=0;entryPerimeter=0;strokeWidth=1;endArrow=oval;endFill=0;" edge="1" parent="1" source="14" target="59">
                    <mxGeometry relative="1" as="geometry"/>
                </mxCell>
                <mxCell id="11" style="edgeStyle=none;html=1;entryX=-0.012;entryY=0.518;entryDx=0;entryDy=0;entryPerimeter=0;strokeWidth=1;endArrow=oval;endFill=0;" edge="1" parent="1" source="14" target="58">
                    <mxGeometry relative="1" as="geometry"/>
                </mxCell>
                <mxCell id="12" style="edgeStyle=none;html=1;entryX=-0.01;entryY=0.501;entryDx=0;entryDy=0;entryPerimeter=0;strokeWidth=1;endArrow=oval;endFill=1;" edge="1" parent="1" source="14" target="61">
                    <mxGeometry relative="1" as="geometry"/>
                </mxCell>
                <mxCell id="13" value="" style="edgeStyle=none;html=1;startArrow=none;startFill=0;endArrow=none;endFill=0;" edge="1" parent="1" source="14" target="73">
                    <mxGeometry relative="1" as="geometry"/>
                </mxCell>
                <mxCell id="14" value="Canzone" style="rounded=0;whiteSpace=wrap;html=1;" vertex="1" parent="1">
                    <mxGeometry x="440.0700000000002" y="1800.9" width="120" height="60" as="geometry"/>
                </mxCell>
                <mxCell id="15" style="edgeStyle=orthogonalEdgeStyle;rounded=0;html=1;entryX=0.5;entryY=0;entryDx=0;entryDy=0;startArrow=none;startFill=0;endArrow=none;endFill=0;" edge="1" parent="1" source="52" target="14">
                    <mxGeometry relative="1" as="geometry"/>
                </mxCell>
                <mxCell id="16" value="" style="edgeStyle=orthogonalEdgeStyle;html=1;endArrow=none;endFill=0;" edge="1" parent="1" source="18" target="51">
                    <mxGeometry relative="1" as="geometry"/>
                </mxCell>
                <mxCell id="17" value="" style="edgeStyle=orthogonalEdgeStyle;rounded=0;html=1;startArrow=none;startFill=0;endArrow=none;endFill=0;" edge="1" parent="1" source="54" target="44">
                    <mxGeometry relative="1" as="geometry"/>
                </mxCell>
                <mxCell id="18" value="assegnazione" style="shape=rhombus;perimeter=rhombusPerimeter;whiteSpace=wrap;html=1;align=center;" vertex="1" parent="1">
                    <mxGeometry x="274.5700000000002" y="1615.4" width="120" height="60" as="geometry"/>
                </mxCell>
                <mxCell id="19" style="edgeStyle=orthogonalEdgeStyle;rounded=0;orthogonalLoop=1;jettySize=auto;html=1;strokeColor=default;align=center;verticalAlign=middle;fontFamily=Helvetica;fontSize=11;fontColor=default;labelBackgroundColor=default;endArrow=none;endFill=0;" edge="1" parent="1" source="20">
                    <mxGeometry relative="1" as="geometry">
                        <mxPoint x="509.07000000000016" y="1612.9" as="targetPoint"/>
                        <Array as="points">
                            <mxPoint x="446.07" y="1572.9"/>
                            <mxPoint x="509.07" y="1572.9"/>
                            <mxPoint x="509.07" y="1615.9"/>
                        </Array>
                    </mxGeometry>
                </mxCell>
                <mxCell id="20" value="Tecnico del Suono" style="whiteSpace=wrap;html=1;" vertex="1" parent="1">
                    <mxGeometry x="386.07" y="1467.5" width="120" height="60" as="geometry"/>
                </mxCell>
                <mxCell id="21" value="Fonico" style="whiteSpace=wrap;html=1;" vertex="1" parent="1">
                    <mxGeometry x="510.07" y="1467.5" width="120" height="60" as="geometry"/>
                </mxCell>
                <mxCell id="22" style="rounded=0;orthogonalLoop=1;jettySize=auto;html=1;strokeColor=default;align=center;verticalAlign=middle;fontFamily=Helvetica;fontSize=11;fontColor=default;labelBackgroundColor=default;endArrow=none;endFill=0;entryX=1;entryY=0.044;entryDx=0;entryDy=0;entryPerimeter=0;exitX=-0.048;exitY=0.556;exitDx=0;exitDy=0;exitPerimeter=0;startArrow=oval;startFill=1;" edge="1" parent="1" source="34">
                    <mxGeometry relative="1" as="geometry">
                        <mxPoint x="560.4300000000003" y="1618.04" as="targetPoint"/>
                    </mxGeometry>
                </mxCell>
                <mxCell id="23" style="edgeStyle=none;rounded=0;orthogonalLoop=1;jettySize=auto;html=1;entryX=1;entryY=0.156;entryDx=0;entryDy=0;entryPerimeter=0;strokeColor=default;align=center;verticalAlign=middle;fontFamily=Helvetica;fontSize=11;fontColor=default;labelBackgroundColor=default;endArrow=none;endFill=0;exitX=-0.072;exitY=0.556;exitDx=0;exitDy=0;exitPerimeter=0;startArrow=oval;startFill=0;" edge="1" parent="1" source="35">
                    <mxGeometry relative="1" as="geometry">
                        <mxPoint x="560.4300000000003" y="1624.7600000000002" as="targetPoint"/>
                    </mxGeometry>
                </mxCell>
                <mxCell id="24" style="edgeStyle=none;rounded=0;orthogonalLoop=1;jettySize=auto;html=1;entryX=1.003;entryY=0.317;entryDx=0;entryDy=0;entryPerimeter=0;strokeColor=default;align=center;verticalAlign=middle;fontFamily=Helvetica;fontSize=11;fontColor=default;labelBackgroundColor=default;endArrow=none;endFill=0;startArrow=oval;startFill=0;exitX=-0.054;exitY=0.567;exitDx=0;exitDy=0;exitPerimeter=0;" edge="1" parent="1" source="36">
                    <mxGeometry relative="1" as="geometry">
                        <mxPoint x="560.79" y="1634.42" as="targetPoint"/>
                    </mxGeometry>
                </mxCell>
                <mxCell id="25" style="edgeStyle=none;rounded=0;orthogonalLoop=1;jettySize=auto;html=1;entryX=1;entryY=0.461;entryDx=0;entryDy=0;entryPerimeter=0;strokeColor=default;align=center;verticalAlign=middle;fontFamily=Helvetica;fontSize=11;fontColor=default;labelBackgroundColor=default;endArrow=none;endFill=0;startArrow=oval;startFill=0;exitX=-0.037;exitY=0.544;exitDx=0;exitDy=0;exitPerimeter=0;" edge="1" parent="1" source="37">
                    <mxGeometry relative="1" as="geometry">
                        <mxPoint x="560.4300000000003" y="1643.0600000000004" as="targetPoint"/>
                    </mxGeometry>
                </mxCell>
                <mxCell id="26" style="edgeStyle=none;rounded=0;orthogonalLoop=1;jettySize=auto;html=1;entryX=0.997;entryY=0.583;entryDx=0;entryDy=0;entryPerimeter=0;strokeColor=default;align=center;verticalAlign=middle;fontFamily=Helvetica;fontSize=11;fontColor=default;labelBackgroundColor=default;endArrow=none;endFill=0;startArrow=oval;startFill=0;exitX=-0.031;exitY=0.556;exitDx=0;exitDy=0;exitPerimeter=0;" edge="1" parent="1" source="38">
                    <mxGeometry relative="1" as="geometry">
                        <mxPoint x="620.4300000000001" y="1660.4" as="sourcePoint"/>
                        <mxPoint x="560.0699999999997" y="1650.38" as="targetPoint"/>
                    </mxGeometry>
                </mxCell>
                <mxCell id="27" style="edgeStyle=none;rounded=0;orthogonalLoop=1;jettySize=auto;html=1;entryX=1.003;entryY=0.694;entryDx=0;entryDy=0;entryPerimeter=0;strokeColor=default;align=center;verticalAlign=middle;fontFamily=Helvetica;fontSize=11;fontColor=default;labelBackgroundColor=default;endArrow=none;endFill=0;exitX=-0.031;exitY=0.522;exitDx=0;exitDy=0;exitPerimeter=0;startArrow=oval;startFill=0;" edge="1" parent="1" source="39">
                    <mxGeometry relative="1" as="geometry">
                        <mxPoint x="560.79" y="1657.04" as="targetPoint"/>
                    </mxGeometry>
                </mxCell>
                <mxCell id="28" style="edgeStyle=none;rounded=0;orthogonalLoop=1;jettySize=auto;html=1;entryX=1;entryY=0.839;entryDx=0;entryDy=0;entryPerimeter=0;strokeColor=default;align=center;verticalAlign=middle;fontFamily=Helvetica;fontSize=11;fontColor=default;labelBackgroundColor=default;endArrow=none;endFill=0;exitX=-0.046;exitY=0.556;exitDx=0;exitDy=0;exitPerimeter=0;startArrow=oval;startFill=0;" edge="1" parent="1" source="41">
                    <mxGeometry relative="1" as="geometry">
                        <mxPoint x="560.4300000000003" y="1665.7399999999998" as="targetPoint"/>
                    </mxGeometry>
                </mxCell>
                <mxCell id="29" style="edgeStyle=none;rounded=0;orthogonalLoop=1;jettySize=auto;html=1;entryX=0.997;entryY=0.95;entryDx=0;entryDy=0;entryPerimeter=0;strokeColor=default;align=center;verticalAlign=middle;fontFamily=Helvetica;fontSize=11;fontColor=default;labelBackgroundColor=default;endArrow=none;endFill=0;exitX=-0.1;exitY=0.544;exitDx=0;exitDy=0;exitPerimeter=0;startArrow=oval;startFill=0;" edge="1" parent="1" source="40">
                    <mxGeometry relative="1" as="geometry">
                        <mxPoint x="560.0699999999997" y="1672.4" as="targetPoint"/>
                    </mxGeometry>
                </mxCell>
                <mxCell id="30" value="nome" style="text;html=1;align=center;verticalAlign=middle;resizable=0;points=[];autosize=1;strokeColor=none;fillColor=none;fontFamily=Helvetica;fontSize=11;fontColor=default;labelBackgroundColor=default;" vertex="1" parent="1">
                    <mxGeometry x="274.07" y="1816.9" width="50" height="30" as="geometry"/>
                </mxCell>
                <mxCell id="31" style="edgeStyle=orthogonalEdgeStyle;rounded=0;orthogonalLoop=1;jettySize=auto;html=1;exitX=1.007;exitY=0.468;exitDx=0;exitDy=0;strokeColor=default;align=center;verticalAlign=middle;fontFamily=Helvetica;fontSize=11;fontColor=default;labelBackgroundColor=default;endArrow=oval;endFill=0;exitPerimeter=0;entryX=-0.02;entryY=0.56;entryDx=0;entryDy=0;entryPerimeter=0;" edge="1" parent="1" source="44" target="30">
                    <mxGeometry relative="1" as="geometry">
                        <mxPoint x="270.07" y="1850.9" as="targetPoint"/>
                        <mxPoint x="274.57" y="1865.4" as="sourcePoint"/>
                    </mxGeometry>
                </mxCell>
                <mxCell id="32" value="codice" style="text;html=1;align=center;verticalAlign=middle;resizable=0;points=[];autosize=1;strokeColor=none;fillColor=none;fontFamily=Helvetica;fontSize=11;fontColor=default;labelBackgroundColor=default;" vertex="1" parent="1">
                    <mxGeometry x="274.07" y="1803.4" width="60" height="30" as="geometry"/>
                </mxCell>
                <mxCell id="33" value="" style="group" connectable="0" vertex="1" parent="1">
                    <mxGeometry x="581.4300000000001" y="1566.4" width="160" height="170" as="geometry"/>
                </mxCell>
                <mxCell id="34" value="&lt;div&gt;codice fiscale&lt;br&gt;&lt;/div&gt;" style="text;html=1;align=left;verticalAlign=middle;resizable=0;points=[];autosize=1;strokeColor=none;fillColor=none;fontFamily=Helvetica;fontSize=11;fontColor=default;labelBackgroundColor=default;" vertex="1" parent="33">
                    <mxGeometry width="90" height="30" as="geometry"/>
                </mxCell>
                <mxCell id="35" value="nome" style="text;html=1;align=left;verticalAlign=middle;resizable=0;points=[];autosize=1;strokeColor=none;fillColor=none;" vertex="1" parent="33">
                    <mxGeometry y="20" width="60" height="30" as="geometry"/>
                </mxCell>
                <mxCell id="36" value="cognome" style="text;html=1;align=left;verticalAlign=middle;resizable=0;points=[];autosize=1;strokeColor=none;fillColor=none;" vertex="1" parent="33">
                    <mxGeometry y="39" width="80" height="30" as="geometry"/>
                </mxCell>
                <mxCell id="37" value="data di nascita" style="text;html=1;align=left;verticalAlign=middle;resizable=0;points=[];autosize=1;strokeColor=none;fillColor=none;" vertex="1" parent="33">
                    <mxGeometry y="60" width="100" height="30" as="geometry"/>
                </mxCell>
                <mxCell id="38" value="data di assunzione" style="text;html=1;align=left;verticalAlign=middle;resizable=0;points=[];autosize=1;strokeColor=none;fillColor=none;" vertex="1" parent="33">
                    <mxGeometry y="79" width="130" height="30" as="geometry"/>
                </mxCell>
                <mxCell id="39" value="numero di telefono (1,N)" style="text;html=1;align=left;verticalAlign=middle;resizable=0;points=[];autosize=1;strokeColor=none;fillColor=none;" vertex="1" parent="33">
                    <mxGeometry y="99" width="160" height="30" as="geometry"/>
                </mxCell>
                <mxCell id="40" value="iban" style="text;html=1;align=left;verticalAlign=middle;resizable=0;points=[];autosize=1;strokeColor=none;fillColor=none;spacing=2;spacingTop=0;" vertex="1" parent="33">
                    <mxGeometry y="140" width="50" height="30" as="geometry"/>
                </mxCell>
                <mxCell id="41" value="email (1,N)" style="text;html=1;align=left;verticalAlign=middle;resizable=0;points=[];autosize=1;strokeColor=none;fillColor=none;" vertex="1" parent="33">
                    <mxGeometry y="120" width="80" height="30" as="geometry"/>
                </mxCell>
                <mxCell id="42" style="edgeStyle=orthogonalEdgeStyle;rounded=0;orthogonalLoop=1;jettySize=auto;html=1;entryX=0.5;entryY=1;entryDx=0;entryDy=0;strokeColor=default;align=center;verticalAlign=middle;fontFamily=Helvetica;fontSize=11;fontColor=default;labelBackgroundColor=default;endArrow=none;endFill=0;exitX=0.56;exitY=0.013;exitDx=0;exitDy=0;exitPerimeter=0;" edge="1" parent="1" source="51" target="21">
                    <mxGeometry relative="1" as="geometry">
                        <mxPoint x="508.07" y="1612.9" as="sourcePoint"/>
                        <mxPoint x="544.0699999999999" y="1532.4" as="targetPoint"/>
                        <Array as="points">
                            <mxPoint x="507.07" y="1612.9"/>
                            <mxPoint x="509.07" y="1612.9"/>
                            <mxPoint x="509.07" y="1572.9"/>
                            <mxPoint x="569.0699999999999" y="1572.9"/>
                            <mxPoint x="569.0699999999999" y="1527.9"/>
                        </Array>
                    </mxGeometry>
                </mxCell>
                <mxCell id="43" value="(1,N)" style="text;html=1;align=center;verticalAlign=middle;resizable=0;points=[];autosize=1;strokeColor=none;fillColor=none;fontFamily=Helvetica;fontSize=11;fontColor=default;labelBackgroundColor=default;" vertex="1" parent="1">
                    <mxGeometry x="158.57" y="1780.4" width="50" height="30" as="geometry"/>
                </mxCell>
                <mxCell id="44" value="Attrezzatura" style="rounded=0;whiteSpace=wrap;html=1;" vertex="1" parent="1">
                    <mxGeometry x="104.57" y="1805.4" width="120" height="60" as="geometry"/>
                </mxCell>
                <mxCell id="45" value="(0,N)" style="text;html=1;align=center;verticalAlign=middle;resizable=0;points=[];autosize=1;strokeColor=none;fillColor=none;fontFamily=Helvetica;fontSize=11;fontColor=default;labelBackgroundColor=default;" vertex="1" parent="1">
                    <mxGeometry x="158.57" y="1670.9" width="50" height="30" as="geometry"/>
                </mxCell>
                <mxCell id="46" value="(1,2)" style="text;html=1;align=center;verticalAlign=middle;resizable=0;points=[];autosize=1;strokeColor=none;fillColor=none;fontFamily=Helvetica;fontSize=11;fontColor=default;labelBackgroundColor=default;" vertex="1" parent="1">
                    <mxGeometry x="214.07" y="1618.4" width="50" height="30" as="geometry"/>
                </mxCell>
                <mxCell id="47" value="(1,1)" style="text;html=1;align=center;verticalAlign=middle;resizable=0;points=[];autosize=1;strokeColor=none;fillColor=none;fontFamily=Helvetica;fontSize=11;fontColor=default;labelBackgroundColor=default;" vertex="1" parent="1">
                    <mxGeometry x="394.57" y="1618.4" width="50" height="30" as="geometry"/>
                </mxCell>
                <mxCell id="48" value="(0,N)" style="text;html=1;align=center;verticalAlign=middle;resizable=0;points=[];autosize=1;strokeColor=none;fillColor=none;fontFamily=Helvetica;fontSize=11;fontColor=default;labelBackgroundColor=default;" vertex="1" parent="1">
                    <mxGeometry x="492.57" y="1776.4" width="50" height="30" as="geometry"/>
                </mxCell>
                <mxCell id="49" value="(1,N)" style="text;html=1;align=center;verticalAlign=middle;resizable=0;points=[];autosize=1;strokeColor=none;fillColor=none;fontFamily=Helvetica;fontSize=11;fontColor=default;labelBackgroundColor=default;" vertex="1" parent="1">
                    <mxGeometry x="489.07" y="1670.9" width="50" height="30" as="geometry"/>
                </mxCell>
                <mxCell id="50" value="(t,s)" style="text;html=1;align=center;verticalAlign=middle;resizable=0;points=[];autosize=1;strokeColor=none;fillColor=none;fontFamily=Helvetica;fontSize=11;fontColor=default;labelBackgroundColor=default;" vertex="1" parent="1">
                    <mxGeometry x="504.07" y="1567.9" width="40" height="30" as="geometry"/>
                </mxCell>
                <mxCell id="51" value="Tecnico" style="rounded=0;whiteSpace=wrap;html=1;" vertex="1" parent="1">
                    <mxGeometry x="440.0700000000002" y="1615.15" width="120" height="60" as="geometry"/>
                </mxCell>
                <mxCell id="52" value="lavora a" style="shape=rhombus;perimeter=rhombusPerimeter;whiteSpace=wrap;html=1;align=center;" vertex="1" parent="1">
                    <mxGeometry x="440.0700000000002" y="1714.4" width="120" height="60" as="geometry"/>
                </mxCell>
                <mxCell id="53" value="Sala" style="rounded=0;whiteSpace=wrap;html=1;" vertex="1" parent="1">
                    <mxGeometry x="104.57" y="1615.15" width="120" height="60" as="geometry"/>
                </mxCell>
                <mxCell id="54" value="di" style="shape=rhombus;perimeter=rhombusPerimeter;whiteSpace=wrap;html=1;align=center;" vertex="1" parent="1">
                    <mxGeometry x="104.57000000000022" y="1710.4" width="120" height="60" as="geometry"/>
                </mxCell>
                <mxCell id="55" value="percorso di sistema" style="text;html=1;align=center;verticalAlign=middle;resizable=0;points=[];autosize=1;strokeColor=none;fillColor=none;" vertex="1" parent="1">
                    <mxGeometry x="595.43" y="1801" width="130" height="30" as="geometry"/>
                </mxCell>
                <mxCell id="56" value="estensione" style="text;html=1;align=center;verticalAlign=middle;resizable=0;points=[];autosize=1;strokeColor=none;fillColor=none;" vertex="1" parent="1">
                    <mxGeometry x="597.8599999999999" y="1820" width="80" height="30" as="geometry"/>
                </mxCell>
                <mxCell id="57" value="titolo" style="text;html=1;align=center;verticalAlign=middle;resizable=0;points=[];autosize=1;strokeColor=none;fillColor=none;" vertex="1" parent="1">
                    <mxGeometry x="596.8599999999999" y="1785.7" width="50" height="30" as="geometry"/>
                </mxCell>
                <mxCell id="58" value="testo" style="text;html=1;align=center;verticalAlign=middle;resizable=0;points=[];autosize=1;strokeColor=none;fillColor=none;" vertex="1" parent="1">
                    <mxGeometry x="597.86" y="1875.5" width="50" height="30" as="geometry"/>
                </mxCell>
                <mxCell id="59" value="data di registrazione" style="text;html=1;align=center;verticalAlign=middle;resizable=0;points=[];autosize=1;strokeColor=none;fillColor=none;" vertex="1" parent="1">
                    <mxGeometry x="597.43" y="1857.3" width="130" height="30" as="geometry"/>
                </mxCell>
                <mxCell id="60" value="lunghezza" style="text;html=1;align=center;verticalAlign=middle;resizable=0;points=[];autosize=1;strokeColor=none;fillColor=none;" vertex="1" parent="1">
                    <mxGeometry x="596.86" y="1838.5" width="80" height="30" as="geometry"/>
                </mxCell>
                <mxCell id="61" value="codice" style="text;html=1;align=center;verticalAlign=middle;resizable=0;points=[];autosize=1;strokeColor=none;fillColor=none;" vertex="1" parent="1">
                    <mxGeometry x="595.43" y="1765.3" width="60" height="30" as="geometry"/>
                </mxCell>
                <mxCell id="62" value="" style="rounded=0;orthogonalLoop=1;jettySize=auto;html=1;endArrow=oval;endFill=1;entryX=1.028;entryY=0.524;entryDx=0;entryDy=0;entryPerimeter=0;exitX=0.003;exitY=0.199;exitDx=0;exitDy=0;exitPerimeter=0;" edge="1" parent="1" source="53" target="63">
                    <mxGeometry relative="1" as="geometry">
                        <mxPoint x="94" y="1643.7" as="targetPoint"/>
                        <mxPoint x="100" y="1630" as="sourcePoint"/>
                    </mxGeometry>
                </mxCell>
                <mxCell id="63" value="codice" style="text;html=1;align=center;verticalAlign=middle;resizable=0;points=[];autosize=1;strokeColor=none;fillColor=none;" vertex="1" parent="1">
                    <mxGeometry x="30.07000000000005" y="1611.9" width="60" height="30" as="geometry"/>
                </mxCell>
                <mxCell id="64" style="edgeStyle=none;html=1;entryX=1.011;entryY=0.499;entryDx=0;entryDy=0;entryPerimeter=0;strokeWidth=1;endArrow=oval;endFill=0;exitX=0;exitY=0.5;exitDx=0;exitDy=0;" edge="1" parent="1" source="53" target="66">
                    <mxGeometry relative="1" as="geometry">
                        <mxPoint x="100" y="1646" as="sourcePoint"/>
                    </mxGeometry>
                </mxCell>
                <mxCell id="65" style="edgeStyle=none;html=1;exitX=0.005;exitY=0.795;exitDx=0;exitDy=0;entryX=0.989;entryY=0.505;entryDx=0;entryDy=0;entryPerimeter=0;strokeWidth=1;endArrow=oval;endFill=0;exitPerimeter=0;" edge="1" parent="1" source="53" target="67">
                    <mxGeometry relative="1" as="geometry">
                        <mxPoint x="126.5" y="1658.7" as="sourcePoint"/>
                    </mxGeometry>
                </mxCell>
                <mxCell id="66" value="piano" style="text;html=1;align=center;verticalAlign=middle;resizable=0;points=[];autosize=1;strokeColor=none;fillColor=none;" vertex="1" parent="1">
                    <mxGeometry x="39.99999999999999" y="1630.15" width="50" height="30" as="geometry"/>
                </mxCell>
                <mxCell id="67" value="numero sala" style="text;html=1;align=center;verticalAlign=middle;resizable=0;points=[];autosize=1;strokeColor=none;fillColor=none;" vertex="1" parent="1">
                    <mxGeometry y="1648.4" width="90" height="30" as="geometry"/>
                </mxCell>
                <mxCell id="68" style="edgeStyle=none;html=1;entryX=0;entryY=0.549;entryDx=0;entryDy=0;entryPerimeter=0;strokeWidth=1;endArrow=oval;endFill=0;" edge="1" parent="1" source="74" target="69">
                    <mxGeometry relative="1" as="geometry"/>
                </mxCell>
                <mxCell id="69" value="percorso di sistema" style="text;html=1;align=center;verticalAlign=middle;resizable=0;points=[];autosize=1;strokeColor=none;fillColor=none;" vertex="1" parent="1">
                    <mxGeometry x="595.43" y="1990" width="130" height="30" as="geometry"/>
                </mxCell>
                <mxCell id="70" value="estensione" style="text;html=1;align=center;verticalAlign=middle;resizable=0;points=[];autosize=1;strokeColor=none;fillColor=none;" vertex="1" parent="1">
                    <mxGeometry x="595.93" y="2010" width="80" height="30" as="geometry"/>
                </mxCell>
                <mxCell id="71" value="nome del file" style="text;html=1;align=center;verticalAlign=middle;resizable=0;points=[];autosize=1;strokeColor=none;fillColor=none;" vertex="1" parent="1">
                    <mxGeometry x="595.93" y="2028" width="90" height="30" as="geometry"/>
                </mxCell>
                <mxCell id="72" value="" style="edgeStyle=none;html=1;strokeWidth=1;endArrow=none;endFill=0;" edge="1" parent="1" source="73" target="74">
                    <mxGeometry relative="1" as="geometry"/>
                </mxCell>
                <mxCell id="73" value="in" style="shape=rhombus;perimeter=rhombusPerimeter;whiteSpace=wrap;html=1;align=center;" vertex="1" parent="1">
                    <mxGeometry x="440.07" y="1904.5" width="120" height="60" as="geometry"/>
                </mxCell>
                <mxCell id="74" value="FIle" style="whiteSpace=wrap;html=1;" vertex="1" parent="1">
                    <mxGeometry x="440.07" y="1990" width="120" height="60" as="geometry"/>
                </mxCell>
                <mxCell id="75" style="edgeStyle=none;html=1;entryX=0.004;entryY=0.497;entryDx=0;entryDy=0;entryPerimeter=0;strokeWidth=1;endArrow=oval;endFill=0;" edge="1" parent="1" source="74" target="70">
                    <mxGeometry relative="1" as="geometry"/>
                </mxCell>
                <mxCell id="76" style="edgeStyle=none;html=1;entryX=0.008;entryY=0.526;entryDx=0;entryDy=0;entryPerimeter=0;strokeWidth=1;endArrow=oval;endFill=0;" edge="1" parent="1" source="74" target="71">
                    <mxGeometry relative="1" as="geometry"/>
                </mxCell>
            </root>
        </mxGraphModel>
    </diagram>
</mxfile>